<svg xmlns="http://www.w3.org/2000/svg" viewBox="0 0 32 32">
  <!-- Background circle with primary/white mix -->
  <circle cx="16" cy="16" r="15" fill="#FFF4ED"/>
  
  <!-- Lucide Backpack Icon (centered and scaled) -->
  <!-- Icon viewBox is 24x24, centering it perfectly in 32x32 viewBox -->
  <!-- Center of 32x32 is (16,16), center of 24x24 icon is (12,12), so translate(4,4) centers it -->
  <g transform="translate(4, 4)">
    <path
      d="M4 10a2 2 0 0 1 2-2h12a2 2 0 0 1 2 2v10a2 2 0 0 1-2 2H6a2 2 0 0 1-2-2z"
      fill="none"
      stroke="#EE610F"
      stroke-width="2"
      stroke-linecap="round"
      stroke-linejoin="round"
    />
    <path
      d="M9 6V4a2 2 0 0 1 2-2h2a2 2 0 0 1 2 2v2"
      fill="none"
      stroke="#EE610F"
      stroke-width="2"
      stroke-linecap="round"
      stroke-linejoin="round"
    />
    <path
      d="M8 21v-5a2 2 0 0 1 2-2h4a2 2 0 0 1 2 2v5"
      fill="none"
      stroke="#EE610F"
      stroke-width="2"
      stroke-linecap="round"
      stroke-linejoin="round"
    />
    <path
      d="M8 10h8"
      fill="none"
      stroke="#EE610F"
      stroke-width="2"
      stroke-linecap="round"
      stroke-linejoin="round"
    />
    <path
      d="M8 18h8"
      fill="none"
      stroke="#EE610F"
      stroke-width="2"
      stroke-linecap="round"
      stroke-linejoin="round"
    />
  </g>
</svg>
